#!OML:ASF F:\VICON\USERDATA\INSTALL\rory3\rory3.ASF
:FULLY-SPECIFIED
:DEGREES
108
root 1.4084543863601438 17.892985011123404 53.8332869051616 -3.225550368530419 -0.4413306849882188 0.6285169673100257
lfemur 11.667782106968358 -3.7944502642062163 -24.50876689844602
ltibia 29.146634230096694
lfoot -2.4783996990823027 -5.860545001416703
ltoes -9.380288265187883
rfemur -24.94022011687384 -0.2351505523800581 22.902017048511933
rtibia 28.402411564495438
rfoot -6.865543173207087 -8.083547031320258
rtoes 4.471480465336715
lowerback 10.232015831856792 -2.0785050565673346 -2.8773456390028542
upperback -0.32121935354472403 -3.166533315300838 1.832529655172002
thorax -5.7940529783229096 -1.4851030337004845 4.360000910128387
lowerneck -16.646119819550186 -3.000522244682925 -1.9698928052297575
upperneck 22.351980004369818 -3.821325582882179 1.1093744935370513
head 9.969449236157867 -1.8582680012561075 0.2807893043202696
lclavicle -2.5152841832778296e-15 -2.733052825226439e-15
lhumerus -29.214154048523483 0.9951314974853607 82.03912758282551
lradius 22.54045983259257
lwrist 10.33307105855693
lhand -29.43577129018777 18.875870191928538
lfingers nan
lthumb -2.8212264804906737 48.53042786996212
rclavicle -2.4872180074113433e-15 -2.7188842585837045e-15
rhumerus -32.846847279195785 -22.46219838592368 -76.21382596378254
rradius 32.77194531649921
rwrist 2.5347078107843006
rhand -17.82346182559622 21.662597936419747
rfingers nan
rthumb 8.280693620117297 -8.00222661125063
109
root 1.419663763161261 17.913728742043656 53.99603029118765 -2.765973494125022 -0.45708346317653703 -1.0534103531778793
lfemur 10.41498631319705 -3.4201410344522554 -22.1302552518935
ltibia 33.81616515517019
lfoot -2.776226627475859 -5.079415422346408
ltoes -8.56130863212928
rfemur -23.981235845945967 0.2566767625502928 24.926062798808097
rtibia 27.666701774091397
rfoot -7.586343861841151 -9.120408864419632
rtoes 4.915933538099253
lowerback 10.13050336376229 -2.101412899146822 -1.6328590208382068
upperback -0.3485747377703694 -2.999045498233351 2.0969008145871197
thorax -5.811490741720133 -1.4436803748459135 4.180659603181249
lowerneck -16.647547099550536 -3.001102120031501 -1.963658819170804
upperneck 22.281868898557946 -3.8082411568529073 1.052325575417018
head 9.929624233799338 -1.8612457420928825 0.26069261477462224
lclavicle -2.5177512287023275e-15 -2.7343417888621863e-15
lhumerus -29.92395044762052 1.5220477660281304 82.15823555152538
lradius 22.3737398182052
lwrist 10.642377282027816
lhand -29.59836870149452 18.79110905562221
lfingers nan
lthumb -2.994651223818528 48.39549590359396
rclavicle -2.4890289970718228e-15 -2.719854884409654e-15
rhumerus -32.48734968083618 -22.36377461850193 -76.00813788068359
rradius 32.78627981766832
rwrist 2.5360603658855077
rhand -17.843746863373106 21.63569140973752
rfingers nan
rthumb 8.27780770232732 -7.99704251873196
110
root 1.427698506446478 17.946766565215686 53.06145627541517 -2.365593201525261 -0.6432471040767249 -2.5401022264379667
lfemur 8.599400860460127 -2.8676154249934203 -19.699484527967073
ltibia 38.910351916096474
lfoot -3.446634760978849 -4.213169651795126
ltoes -8.593013184675511
rfemur -22.342011802894426 0.9912901072698885 26.777182150982817
rtibia 27.963483258651408
rfoot -8.677029542727585 -9.57092221580971
rtoes 4.873308580827464
lowerback 10.091960896206084 -2.0405638868523006 -0.6096810012489919
upperback -0.388415542002356 -2.7298347028880157 2.3079115377898334
thorax -5.881841959141598 -1.3120405640995767 4.074986557447438
lowerneck -16.689506813761167 -3.0160513700168443 -1.9077748699359889
upperneck 22.182764122581176 -3.828350577706865 0.9975989668341647
head 9.882762803585855 -1.8748495965902947 0.23043035574218096
lclavicle -2.5180890902362343e-15 -2.7351455469076655e-15
lhumerus -30.633786041430778 2.0236412055185413 82.23068672190922
lradius 22.40613510157363
lwrist 10.913977417524293
lhand -29.743857941488805 18.721003265149093
lfingers nan
lthumb -3.1535925223259573 48.265489130204074
rclavicle -2.4887896590161134e-15 -2.720187560378537e-15
rhumerus -32.100732277963104 -22.22665062812371 -75.81201916920526
rradius 32.800436663291
rwrist 2.5075971324611146
rhand -17.817974094224333 21.68403552790642
rfingers nan
rthumb 8.287612400420505 -7.964331075122904
111
root 1.450156731440377 17.95619654168016 52.56488561202403 -2.513643860378038 -1.1102454866294087 -2.6314897491392566
lfemur 6.801819219871776 -2.261609251085366 -18.488485885958248
ltibia 43.763202072797235
lfoot -4.422637818973694 -3.522845652126901
ltoes -8.843606001469926
rfemur -19.849802963935016 1.3962855730303987 27.42689775513705
rtibia 28.437298531972633
rfoot -10.170197474104418 -9.975914344941865
rtoes 4.26592692170917
lowerback 10.182546635132939 -1.8334625199529817 -0.48957607271579073
upperback -0.34685449471528346 -2.4583055730569536 2.334222384372229
thorax -5.908102886821188 -1.1838568571615762 3.985896190310666
lowerneck -16.77086131949595 -3.051752160540738 -1.82207063293426
upperneck 22.05774966978425 -3.8886018644013056 0.9577953355931722
head 9.83344814616834 -1.9007108749522925 0.19329669002884425
lclavicle -2.5178172723350315e-15 -2.7354529397573718e-15
lhumerus -31.26618268314655 2.5624699541015747 82.2732407972985
lradius 22.601664336116293
lwrist 11.188025376469628
lhand -29.83059133776314 18.6661089122437
lfingers nan
lthumb -3.2513745048920866 48.18540521126738
rclavicle -2.489565856323723e-15 -2.7210369277839176e-15
rhumerus -31.645588414751042 -21.99390203502124 -75.6172935078625
rradius 32.81627159901013
rwrist 2.460164042637625
rhand -17.827637179279233 21.66450772933887
rfingers nan
rthumb 8.28092325132569 -7.951553051063565
112
root 1.476492575828149 17.960216405061402 52.66985613472904 -2.59932812607042 -1.2279342307216723 -3.203045517561478
lfemur 4.271169501607314 -1.718764867684741 -16.797845973489725
ltibia 48.41909255221648
lfoot -4.935123298316787 -2.387750061246936
ltoes -9.240232366286396
rfemur -17.077102883537574 1.5534865820620347 28.304897738024884
rtibia 28.958236539759504
rfoot -11.736462412938021 -10.632448250690537
rtoes 3.2014132542175537
lowerback 10.178576376088738 -1.6399725511948995 0.018673107254570942
upperback -0.2984713526132199 -2.09932214385057 2.364800470591981
thorax -5.924106151433641 -1.0070205326677644 3.7782871854961977
lowerneck -16.85571479091935 -3.10895359204172 -1.7280105474557417
upperneck 21.905530045831927 -3.9899730068931367 0.9384652502819908
head 9.781473077663149 -1.9394588659005112 0.1518179265861512
lclavicle -2.5186520487484304e-15 -2.7364120023334563e-15
lhumerus -31.74924085107069 3.178232356884581 82.3200327166181
lradius 22.901619543335528
lwrist 11.483959476718978
lhand -29.841596501591802 18.621527314207306
lfingers nan
lthumb -3.2651953473898594 48.16614224570452
rclavicle -2.490319238467703e-15 -2.7218726643197823e-15
rhumerus -31.25014562510284 -21.723312918302515 -75.53021625180835
rradius 32.835294175237316
rwrist 2.401994091506335
rhand -17.805782536021212 21.70112984004913
rfingers nan
rthumb 8.294411321421169 -7.8969324256360505
113
root 1.4871409528821267 17.97380481377694 52.5228965280633 -2.54618131859778 -0.9666781021621407 -4.515389556997826
lfemur 0.8159856433871404 -1.2692781562281619 -14.659748165892221
ltibia 53.01711421329971
lfoot -5.20446830509054 -1.4235168367069824
ltoes -10.312364469699403
rfemur -13.896632556578453 1.816681556064283 29.664015486448
rtibia 29.471267751975752
rfoot -12.870664799671609 -11.289571755244209
rtoes 1.8756099484933342
lowerback 10.166110808925046 -1.399831954240641 1.1461966913309922
upperback -0.2752007088284134 -1.507041736937836 2.5095903153225914
thorax -6.000523547798471 -0.7228041389501751 3.3813086891740474
lowerneck -16.927379625351346 -3.187415744363721 -1.6202415898415468
upperneck 21.732067218610105 -4.136882184154399 0.9218674092238559
head 9.727860608910705 -1.9938175483115952 0.09897557818160183
lclavicle -2.5191344570172463e-15 -2.7375193702964094e-15
lhumerus -32.090876565027976 3.762515113616821 82.37508219866514
lradius 23.266039447921607
lwrist 11.749662876859006
lhand -29.81949190980063 18.517822301016924
lfingers nan
lthumb -3.228307521604697 48.15944092439337
rclavicle -2.4905485363060958e-15 -2.722673202944428e-15
rhumerus -30.827055996709863 -21.373400947628298 -75.54049999811491
rradius 32.83956609542167
rwrist 2.337826283835801
rhand -17.82534834370376 21.66675193457953
rfingers nan
rthumb 8.280744971952265 -7.904190043114763
114
root 1.4935381325354147 17.958745902942283 51.66682265405121 -2.965567991680315 -0.8833794289889365 -5.227131016949702
lfemur -2.8859700287841603 -0.8904854618173803 -13.413880493258864
ltibia 56.86590477341668
lfoot -5.830324080214696 -0.8366648094326221
ltoes -11.343848496362721
rfemur -10.787553554085058 2.1279412824400716 30.284830555164227
rtibia 29.795849176448144
rfoot -13.245907003554672 -11.599181357826872
rtoes 0.5743363915269399
lowerback 10.266250907000241 -1.10117528313558 1.7523517902566708
upperback -0.2575159425149651 -0.9807511250694203 2.570139577898788
thorax -6.114498203678073 -0.4673195170592144 2.8591001437165855
lowerneck -16.991653457726915 -3.286443390962179 -1.4957959495444972
upperneck 21.55900860184637 -4.326508626455034 0.9024166039186785
head 9.677857738997321 -2.063442857625228 0.03646659029958091
lclavicle -2.5167269082378294e-15 -2.7375415554676644e-15
lhumerus -32.282607297680535 4.165719983321177 82.42752663812252
lradius 23.664437741358952
lwrist 11.895738390186642
lhand -29.786762400695768 18.396147082618718
lfingers nan
lthumb -3.170223733217541 48.157424474378445
rclavicle -2.491202429523564e-15 -2.7241770936271096e-15
rhumerus -30.3939820875541 -20.952967836640358 -75.57548532316389
rradius 32.840522337196624
rwrist 2.2785191960572555
rhand -17.80896709212245 21.70156445052577
rfingers nan
rthumb 8.308565081241671 -7.8338704124529475
